<mxfile host="app.diagrams.net" modified="2022-11-05T03:38:50.452Z" agent="5.0 (Macintosh; Intel Mac OS X 10_15_7) AppleWebKit/537.36 (KHTML, like Gecko) Chrome/106.0.0.0 Safari/537.36" etag="bYVGmC39nuVXY0vYEkFk" version="20.5.0" type="github">
  <diagram id="NobDe7lGs-4SM-pthLG_" name="Page-1">
    <mxGraphModel dx="1985" dy="657" grid="1" gridSize="10" guides="1" tooltips="1" connect="1" arrows="1" fold="1" page="1" pageScale="1" pageWidth="850" pageHeight="1100" math="0" shadow="0">
      <root>
        <mxCell id="0" />
        <mxCell id="1" parent="0" />
        <mxCell id="r6OGX3egr9KRE91ye2ou-1" value="多个物理镜头的&lt;br&gt;RAW图像" style="strokeWidth=2;html=1;shape=mxgraph.flowchart.multi-document;whiteSpace=wrap;" vertex="1" parent="1">
          <mxGeometry x="140" y="130" width="120" height="60" as="geometry" />
        </mxCell>
        <mxCell id="r6OGX3egr9KRE91ye2ou-2" value="" style="strokeWidth=2;html=1;shape=mxgraph.flowchart.multi-document;whiteSpace=wrap;" vertex="1" parent="1">
          <mxGeometry x="140" y="260" width="120" height="60" as="geometry" />
        </mxCell>
        <mxCell id="r6OGX3egr9KRE91ye2ou-3" value="" style="endArrow=none;dashed=1;html=1;dashPattern=1 3;strokeWidth=2;rounded=0;" edge="1" parent="1">
          <mxGeometry width="50" height="50" relative="1" as="geometry">
            <mxPoint x="199.5" y="240" as="sourcePoint" />
            <mxPoint x="199.5" y="210" as="targetPoint" />
          </mxGeometry>
        </mxCell>
        <mxCell id="r6OGX3egr9KRE91ye2ou-4" value="" style="shape=curlyBracket;whiteSpace=wrap;html=1;rounded=1;" vertex="1" parent="1">
          <mxGeometry x="100" y="130" width="20" height="190" as="geometry" />
        </mxCell>
        <mxCell id="r6OGX3egr9KRE91ye2ou-5" value="快门时刻附近一段&lt;br&gt;连续时间的" style="text;html=1;align=center;verticalAlign=middle;resizable=0;points=[];autosize=1;strokeColor=none;fillColor=none;" vertex="1" parent="1">
          <mxGeometry x="-25" y="205" width="120" height="40" as="geometry" />
        </mxCell>
      </root>
    </mxGraphModel>
  </diagram>
</mxfile>
